# xmcd CD database file
#
# Track frame offsets:
#	150
#	2251
#	49550
#	70303
#	139177
#	184128
#	215104
#	241468
#	311764
#
# Disc length: 4489 seconds
#
# Revision: 0
# Processed by: cddbd v1.5.2PL0 Copyright (c) Steve Scherf et al.
# Submitted via: Feurio! 1.68 - http://www.feurio.com
#
DISCID=7e118709
DTITLE=Albert Collins and The Icebreakers - Red Rocks Amphitheatre   Morrison, 
DTITLE=CO   08-16-92
DYEAR=1900
DGENRE=
TTITLE0=intro
TTITLE1=Watermelon Man
TTITLE2=Ice Man
TTITLE3=Lights Are On But Nobody's Home
TTITLE4=Put The Shoe On The Other Foot
TTITLE5=The Things That I Used To Do
TTITLE6=Honey Hush
TTITLE7=Same Old Thing
TTITLE8=Frosty
EXTD=
EXTT0=
EXTT1=
EXTT2=
EXTT3=
EXTT4=
EXTT5=
EXTT6=
EXTT7=
EXTT8=
PLAYORDER=
